<mxfile host="app.diagrams.net" modified="2023-05-01T21:43:09.446Z" agent="Mozilla/5.0 (Macintosh; Intel Mac OS X 10_15_7) AppleWebKit/537.36 (KHTML, like Gecko) Chrome/112.0.0.0 Safari/537.36" etag="rQl1WYlV-DT7q0KhBYF2" version="21.2.3" type="github">
  <diagram name="Página-1" id="oroSco3110j-UN6hGCNr">
    <mxGraphModel dx="1026" dy="2151" grid="1" gridSize="10" guides="1" tooltips="1" connect="1" arrows="1" fold="1" page="1" pageScale="1" pageWidth="2336" pageHeight="1654" math="0" shadow="0">
      <root>
        <mxCell id="0" />
        <mxCell id="1" parent="0" />
        <mxCell id="hXSa_8uIZ4iLDt3UTee9-7" value="" style="edgeStyle=orthogonalEdgeStyle;rounded=0;orthogonalLoop=1;jettySize=auto;html=1;" parent="1" source="0xplG7eCiTCj73ZMytgB-2" target="hXSa_8uIZ4iLDt3UTee9-6" edge="1">
          <mxGeometry relative="1" as="geometry" />
        </mxCell>
        <mxCell id="0xplG7eCiTCj73ZMytgB-2" value="Rest Api User" style="image;sketch=0;aspect=fixed;html=1;points=[];align=center;fontSize=12;image=img/lib/mscae/API_Management.svg;" parent="1" vertex="1">
          <mxGeometry x="1060" y="638" width="50" height="42" as="geometry" />
        </mxCell>
        <mxCell id="0xplG7eCiTCj73ZMytgB-3" value="Api Developer Portal" style="image;aspect=fixed;perimeter=ellipsePerimeter;html=1;align=center;shadow=0;dashed=0;fontColor=#4277BB;labelBackgroundColor=default;fontSize=12;spacingTop=3;image=img/lib/ibm/applications/api_developer_portal.svg;" parent="1" vertex="1">
          <mxGeometry x="1030" y="400" width="60" height="60" as="geometry" />
        </mxCell>
        <mxCell id="0xplG7eCiTCj73ZMytgB-4" value="Api Managment" style="image;aspect=fixed;perimeter=ellipsePerimeter;html=1;align=center;shadow=0;dashed=0;fontColor=#4277BB;labelBackgroundColor=default;fontSize=12;spacingTop=3;image=img/lib/ibm/management/api_management.svg;" parent="1" vertex="1">
          <mxGeometry x="1380" y="390" width="60" height="60" as="geometry" />
        </mxCell>
        <mxCell id="0xplG7eCiTCj73ZMytgB-5" value="Api Security" style="image;aspect=fixed;perimeter=ellipsePerimeter;html=1;align=center;shadow=0;dashed=0;fontColor=#4277BB;labelBackgroundColor=default;fontSize=12;spacingTop=3;image=img/lib/ibm/security/api_security.svg;" parent="1" vertex="1">
          <mxGeometry x="1370" y="620" width="60" height="60" as="geometry" />
        </mxCell>
        <mxCell id="0xplG7eCiTCj73ZMytgB-6" value="Api Proxy" style="image;aspect=fixed;html=1;points=[];align=center;fontSize=12;image=img/lib/azure2/other/API_Proxy.svg;" parent="1" vertex="1">
          <mxGeometry x="850" y="980" width="68" height="38" as="geometry" />
        </mxCell>
        <mxCell id="0xplG7eCiTCj73ZMytgB-8" value="Api Gateway" style="sketch=0;points=[[0,0,0],[0.25,0,0],[0.5,0,0],[0.75,0,0],[1,0,0],[0,1,0],[0.25,1,0],[0.5,1,0],[0.75,1,0],[1,1,0],[0,0.25,0],[0,0.5,0],[0,0.75,0],[1,0.25,0],[1,0.5,0],[1,0.75,0]];outlineConnect=0;gradientDirection=north;dashed=0;verticalLabelPosition=bottom;verticalAlign=top;align=center;html=1;fontSize=12;fontStyle=0;aspect=fixed;shape=mxgraph.aws4.resourceIcon;resIcon=mxgraph.aws4.api_gateway;direction=west;" parent="1" vertex="1">
          <mxGeometry x="380" y="367" width="78" height="78" as="geometry" />
        </mxCell>
        <mxCell id="0xplG7eCiTCj73ZMytgB-11" value="&lt;h1 style=&quot;font-size: 11px;&quot;&gt;Api Developer Portal&lt;/h1&gt;&lt;div style=&quot;font-size: 11px;&quot;&gt;Herramienta donde los consumidores pueden inscribirse en la API y obtener toda la información necesaria, como documentacion, foros para garantizar una integración exitosa&lt;/div&gt;&lt;div style=&quot;font-size: 11px;&quot;&gt;Se debe tener un catalogo de APIs&lt;/div&gt;" style="text;html=1;strokeColor=none;fillColor=none;spacing=5;spacingTop=-20;whiteSpace=wrap;overflow=hidden;rounded=0;fontSize=11;" parent="1" vertex="1">
          <mxGeometry x="800" y="390" width="200" height="110" as="geometry" />
        </mxCell>
        <mxCell id="0xplG7eCiTCj73ZMytgB-13" value="&lt;h1 style=&quot;font-size: 11px;&quot;&gt;Puntos a considerar&lt;/h1&gt;&lt;div&gt;Usar Kong&lt;/div&gt;&lt;div&gt;Usar Keycloak&lt;/div&gt;&lt;div&gt;Deploy en AWS&lt;/div&gt;&lt;div&gt;Usar Solid&lt;/div&gt;&lt;div&gt;Patrones de diseño&lt;/div&gt;&lt;div&gt;Test unitarios e integracion&lt;/div&gt;&lt;div&gt;Mountebank&lt;/div&gt;&lt;div&gt;Crear api con webflux y spring mvc&lt;/div&gt;&lt;div&gt;Clase de manejo de excepciones&lt;/div&gt;&lt;div&gt;manejo de memoria cache redis&lt;/div&gt;&lt;div&gt;uso de cassandra&lt;/div&gt;&lt;div&gt;versionamiento de un api&lt;/div&gt;&lt;div&gt;monitoreo del servicio rest con grafana&lt;/div&gt;&lt;div&gt;tratar de implementar ELK&lt;/div&gt;&lt;div&gt;uso de spring security&lt;/div&gt;&lt;div&gt;Pruebas de estres :Jmeter&lt;/div&gt;&lt;div&gt;Kafka&lt;/div&gt;&lt;div&gt;Esb&lt;/div&gt;" style="text;html=1;strokeColor=none;fillColor=none;spacing=5;spacingTop=-20;whiteSpace=wrap;overflow=hidden;rounded=0;fontSize=11;" parent="1" vertex="1">
          <mxGeometry x="800" y="-70" width="210" height="270" as="geometry" />
        </mxCell>
        <mxCell id="hXSa_8uIZ4iLDt3UTee9-5" value="" style="edgeStyle=orthogonalEdgeStyle;rounded=0;orthogonalLoop=1;jettySize=auto;html=1;" parent="1" source="hXSa_8uIZ4iLDt3UTee9-3" target="hXSa_8uIZ4iLDt3UTee9-4" edge="1">
          <mxGeometry relative="1" as="geometry" />
        </mxCell>
        <mxCell id="hXSa_8uIZ4iLDt3UTee9-3" value="Rest Api User WebFlux" style="image;sketch=0;aspect=fixed;html=1;points=[];align=center;fontSize=12;image=img/lib/mscae/API_Management.svg;" parent="1" vertex="1">
          <mxGeometry x="1010" y="780" width="50" height="42" as="geometry" />
        </mxCell>
        <mxCell id="hXSa_8uIZ4iLDt3UTee9-4" value="" style="dashed=0;outlineConnect=0;html=1;align=center;labelPosition=center;verticalLabelPosition=bottom;verticalAlign=top;shape=mxgraph.webicons.mongodb;gradientColor=#DFDEDE" parent="1" vertex="1">
          <mxGeometry x="1110" y="774.8" width="50" height="52.4" as="geometry" />
        </mxCell>
        <mxCell id="hXSa_8uIZ4iLDt3UTee9-6" value="" style="image;sketch=0;aspect=fixed;html=1;points=[];align=center;fontSize=12;image=img/lib/mscae/Azure_Database_for_PostgreSQL_servers.svg;" parent="1" vertex="1">
          <mxGeometry x="1190" y="638" width="38" height="50" as="geometry" />
        </mxCell>
        <mxCell id="hXSa_8uIZ4iLDt3UTee9-8" value="&lt;h1&gt;&amp;nbsp; &amp;nbsp; &amp;nbsp; Tecnologías&lt;/h1&gt;&lt;div&gt;Spring WebFlux&lt;/div&gt;&lt;div&gt;Spring Security Reactive&lt;/div&gt;&lt;div&gt;MongoDb&lt;/div&gt;&lt;div&gt;Functional Endpints&lt;/div&gt;&lt;div&gt;Uso de Genéricos&amp;nbsp;&lt;/div&gt;&lt;div&gt;Manejo de excepciones y validaciones&lt;/div&gt;&lt;div&gt;Swagger&lt;/div&gt;&lt;div&gt;JasperReports*&lt;/div&gt;&lt;div&gt;Cloudinary&amp;nbsp;&lt;/div&gt;&lt;div&gt;Paginación&lt;/div&gt;&lt;div&gt;Pruebas unitarias e integración&amp;nbsp;&lt;/div&gt;&lt;div&gt;&lt;br&gt;&lt;/div&gt;&lt;div&gt;&lt;br&gt;&lt;/div&gt;" style="text;html=1;strokeColor=#0e8088;fillColor=#b0e3e6;spacing=5;spacingTop=-20;whiteSpace=wrap;overflow=hidden;rounded=1;glass=1;shadow=1;sketch=1;curveFitting=1;jiggle=2;labelBackgroundColor=none;labelBorderColor=none;spacingLeft=8;" parent="1" vertex="1">
          <mxGeometry x="960" y="880" width="240" height="220" as="geometry" />
        </mxCell>
        <mxCell id="hXSa_8uIZ4iLDt3UTee9-12" value="" style="strokeColor=#dddddd;shadow=1;strokeWidth=1;rounded=1;absoluteArcSize=1;arcSize=2;" parent="1" vertex="1">
          <mxGeometry x="1325" y="1087" width="150" height="44" as="geometry" />
        </mxCell>
        <mxCell id="hXSa_8uIZ4iLDt3UTee9-13" value="Service Discovery" style="sketch=0;dashed=0;connectable=0;html=1;fillColor=#757575;strokeColor=none;shape=mxgraph.gcp2.service_discovery;part=1;labelPosition=right;verticalLabelPosition=middle;align=left;verticalAlign=middle;spacingLeft=5;fontSize=12;" parent="hXSa_8uIZ4iLDt3UTee9-12" vertex="1">
          <mxGeometry y="0.5" width="32" height="32" relative="1" as="geometry">
            <mxPoint x="5" y="-16" as="offset" />
          </mxGeometry>
        </mxCell>
        <mxCell id="hXSa_8uIZ4iLDt3UTee9-16" value="" style="image;sketch=0;aspect=fixed;html=1;points=[];align=center;fontSize=12;image=img/lib/mscae/Cache_Redis_Product.svg;" parent="1" vertex="1">
          <mxGeometry x="1580" y="838" width="85.71" height="72" as="geometry" />
        </mxCell>
        <mxCell id="hXSa_8uIZ4iLDt3UTee9-21" value="" style="fontColor=#0066CC;verticalAlign=top;verticalLabelPosition=bottom;labelPosition=center;align=center;html=1;outlineConnect=0;fillColor=#CCCCCC;strokeColor=#6881B3;gradientColor=none;gradientDirection=north;strokeWidth=2;shape=mxgraph.networks.pc;" parent="1" vertex="1">
          <mxGeometry x="105" y="180" width="100" height="70" as="geometry" />
        </mxCell>
        <mxCell id="hXSa_8uIZ4iLDt3UTee9-22" value="" style="fontColor=#0066CC;verticalAlign=top;verticalLabelPosition=bottom;labelPosition=center;align=center;html=1;outlineConnect=0;fillColor=#CCCCCC;strokeColor=#6881B3;gradientColor=none;gradientDirection=north;strokeWidth=2;shape=mxgraph.networks.laptop;" parent="1" vertex="1">
          <mxGeometry x="105" y="390" width="95" height="55" as="geometry" />
        </mxCell>
        <mxCell id="hXSa_8uIZ4iLDt3UTee9-39" value="" style="edgeStyle=orthogonalEdgeStyle;rounded=0;orthogonalLoop=1;jettySize=auto;html=1;" parent="1" source="hXSa_8uIZ4iLDt3UTee9-40" target="hXSa_8uIZ4iLDt3UTee9-38" edge="1">
          <mxGeometry relative="1" as="geometry" />
        </mxCell>
        <mxCell id="hXSa_8uIZ4iLDt3UTee9-30" value="" style="fontColor=#0066CC;verticalAlign=top;verticalLabelPosition=bottom;labelPosition=center;align=center;html=1;outlineConnect=0;fillColor=#CCCCCC;strokeColor=#6881B3;gradientColor=none;gradientDirection=north;strokeWidth=2;shape=mxgraph.networks.mobile;" parent="1" vertex="1">
          <mxGeometry x="120" y="550" width="50" height="100" as="geometry" />
        </mxCell>
        <mxCell id="hXSa_8uIZ4iLDt3UTee9-38" value="" style="shape=waypoint;sketch=0;size=6;pointerEvents=1;points=[];fillColor=#CCCCCC;resizable=0;rotatable=0;perimeter=centerPerimeter;snapToPoint=1;verticalAlign=top;strokeColor=#6881B3;fontColor=#0066CC;gradientColor=none;gradientDirection=north;strokeWidth=2;" parent="1" vertex="1">
          <mxGeometry x="330" y="347" width="20" height="20" as="geometry" />
        </mxCell>
        <mxCell id="hXSa_8uIZ4iLDt3UTee9-42" value="" style="edgeStyle=orthogonalEdgeStyle;rounded=0;orthogonalLoop=1;jettySize=auto;html=1;" parent="1" source="hXSa_8uIZ4iLDt3UTee9-30" target="hXSa_8uIZ4iLDt3UTee9-40" edge="1">
          <mxGeometry relative="1" as="geometry">
            <mxPoint x="170" y="600" as="sourcePoint" />
            <mxPoint x="419" y="420" as="targetPoint" />
          </mxGeometry>
        </mxCell>
        <mxCell id="hXSa_8uIZ4iLDt3UTee9-40" value="" style="shape=waypoint;sketch=0;size=6;pointerEvents=1;points=[];fillColor=#CCCCCC;resizable=0;rotatable=0;perimeter=centerPerimeter;snapToPoint=1;verticalAlign=top;strokeColor=#6881B3;fontColor=#0066CC;gradientColor=none;gradientDirection=north;strokeWidth=2;" parent="1" vertex="1">
          <mxGeometry x="470" y="310" width="20" height="20" as="geometry" />
        </mxCell>
      </root>
    </mxGraphModel>
  </diagram>
</mxfile>
